<svg viewBox="0 0 330 192" xmlns="http://www.w3.org/2000/svg">
<rect width="330" height="192" fill="#1a1a2e"/>
<g transform="translate(15,55)">
<rect x="0" y="15" width="290" height="35" rx="5" fill="#8B6914"/>
<rect x="0" y="18" width="240" height="29" rx="4" fill="#C8A040"/>
<rect x="240" y="15" width="55" height="35" rx="4" fill="#8B6914"/>
<rect x="0" y="44" width="40" height="25" rx="3" fill="#A07820"/>
<rect x="255" y="50" width="35" height="35" rx="3" fill="#6B4F10"/>
<rect x="20" y="20" width="180" height="8" rx="2" fill="#FFD700" opacity="0.6"/>
<rect x="20" y="32" width="120" height="5" rx="2" fill="#DAA520" opacity="0.5"/>
<ellipse cx="260" cy="25" rx="8" ry="5" fill="#FFD700" opacity="0.7"/>
<path d="M60 20 Q90 10 120 20 Q90 30 60 20Z" fill="#FFD700" opacity="0.4"/>
<path d="M130 20 Q160 8 190 20 Q160 32 130 20Z" fill="#FFD700" opacity="0.3"/>
</g>
<text x="165" y="175" text-anchor="middle" font-family="Arial" font-size="11" fill="#C8A040" opacity="0.7">AWP | Dragon Lore</text>
</svg>