<svg viewBox="0 0 330 192" xmlns="http://www.w3.org/2000/svg">
<rect width="330" height="192" fill="#1a1a2e"/>
<g transform="translate(40,55)">
<rect x="0" y="10" width="220" height="60" rx="8" fill="#1a0800"/>
<rect x="0" y="14" width="175" height="52" rx="6" fill="#ff8f00"/>
<rect x="175" y="10" width="50" height="60" rx="6" fill="#e65100"/>
<rect x="0" y="64" width="55" height="42" rx="5" fill="#bf360c"/>
<path d="M20 20 Q60 5 100 20 Q60 35 20 20Z" fill="#FFCC02" opacity="0.7"/>
<path d="M80 18 Q120 3 160 18 Q120 33 80 18Z" fill="#FFD740" opacity="0.6"/>
<path d="M30 40 Q70 28 110 40 Q70 52 30 40Z" fill="#FF6D00" opacity="0.5"/>
<ellipse cx="185" cy="30" rx="10" ry="7" fill="#FFCC02" opacity="0.8"/>
</g>
<text x="165" y="175" text-anchor="middle" font-family="Arial" font-size="11" fill="#ff8f00" opacity="0.7">Desert Eagle | Blaze</text>
</svg>