<svg viewBox="0 0 330 192" xmlns="http://www.w3.org/2000/svg">
<rect width="330" height="192" fill="#1a1a2e"/>
<g transform="translate(20,55)">
<rect x="0" y="15" width="255" height="48" rx="6" fill="#1a1200"/>
<rect x="0" y="19" width="200" height="40" rx="5" fill="#c8a040"/>
<rect x="200" y="15" width="60" height="48" rx="5" fill="#a07820"/>
<rect x="0" y="57" width="50" height="35" rx="4" fill="#8b6914"/>
<rect x="215" y="63" width="42" height="42" rx="3" fill="#5d4400"/>
<rect x="20" y="22" width="140" height="8" rx="2" fill="#FFD700" opacity="0.5"/>
<rect x="20" y="34" width="100" height="5" rx="2" fill="#DAA520" opacity="0.4"/>
<circle cx="210" cy="28" r="7" fill="#FFD700" opacity="0.7"/>
<path d="M50 22 L55 27 L50 32 L45 27Z" fill="#FFD700" opacity="0.6"/>
<path d="M80 22 L85 27 L80 32 L75 27Z" fill="#FFD700" opacity="0.5"/>
</g>
<text x="165" y="175" text-anchor="middle" font-family="Arial" font-size="11" fill="#c8a040" opacity="0.7">USP-S | Kill Confirmed</text>
</svg>